<svg fill="#FFFFFF" xmlns="http://www.w3.org/2000/svg"  viewBox="0 0 64 64" width="64px" height="64px"><path d="M 32 4 C 16.561 4 4 16.561 4 32 C 4 47.439 16.561 60 32 60 C 47.439 60 60 47.439 60 32 C 60 16.561 47.439 4 32 4 z M 25 17 L 29 17 L 29 20 L 29.671875 20 L 29.671875 20.001953 L 32.09375 20.001953 C 32.41275 20.001953 32.710047 20.007625 32.998047 20.015625 L 32.998047 17 L 36.998047 17 L 36.998047 20.550781 C 37.747047 20.778781 38.182219 21.034516 38.449219 21.228516 C 39.148219 21.730516 39.730359 22.399375 40.193359 23.234375 C 40.656359 24.069375 40.888672 25.005969 40.888672 26.042969 C 40.888672 27.166969 40.60225 28.197719 40.03125 29.136719 C 39.46025 30.075719 38.687938 30.779047 37.710938 31.248047 C 39.088938 31.674047 40.148672 32.399781 40.888672 33.425781 C 41.630672 34.450781 42 35.656969 42 37.042969 C 42 38.134969 41.761203 39.196516 41.283203 40.228516 C 40.805203 41.259516 39.922125 42.097125 39.078125 42.703125 C 38.544125 43.087125 37.872 43.384656 37 43.597656 L 37 47 L 33 47 L 33 43.982422 C 32.975 43.982422 32.952734 43.984375 32.927734 43.984375 C 32.355734 43.984375 31.713484 43.997047 31.021484 43.998047 L 29 43.998047 L 29 46.998047 L 25 46.998047 L 25 43.998047 L 23 43.998047 L 23 20.001953 L 25 20.001953 L 25 17 z M 27 24 L 27 30 L 34 30 C 35.657 30 37 28.657 37 27 C 37 25.343 35.657 24 34 24 L 27 24 z M 27 34 L 27 40 L 35 40 C 36.657 40 38 38.657 38 37 C 38 35.343 36.657 34 35 34 L 27 34 z"/></svg>