<?xml version="1.0" encoding="utf-8"?>
<!-- Generator: Adobe Illustrator 24.1.3, SVG Export Plug-In . SVG Version: 6.00 Build 0)  -->
<svg version="1.1" id="Layer_1" xmlns="http://www.w3.org/2000/svg" xmlns:xlink="http://www.w3.org/1999/xlink" x="0px" y="0px"
	 viewBox="0 0 72 72" style="enable-background:new 0 0 72 72;" xml:space="preserve">
<style type="text/css">
	.st0{fill:#25F4EE;}
	.st1{fill:#FE2C55;}
	.st2{fill:#FFFFFF;}
</style>
<g id="Guides">
</g>
<g id="页面1">
	<g id="编组-2" transform="translate(0.979236, 0.000000)">
		<path id="路径" class="st0" d="M31.5,32.2v-1.3c-0.5-0.1-1-0.2-1.5-0.2c-4.8,0-9,3.1-10.4,7.6s0.3,9.5,4.2,12.2
			c-2.3-3.7-3.2-7.8-1.5-11.7S27.2,32.7,31.5,32.2L31.5,32.2z"/>
		<path id="路径_1_" class="st0" d="M30.9,49c2.7,0,7.4-2.6,6.8-6L38,20.5l3.1-1C41,19,41,18.5,41,18h-6v23.8
			c-0.1,2.7-2.3,4.8-5,4.8c-0.8,0-1.6-0.2-2.3-0.6C28.2,47.7,29.3,49,30.9,49z"/>
		<path id="路径_2_" class="st0" d="M49.2,27.6v-1.3c-1.6,0-3.2-0.5-4.5-1.4C45.5,26.9,47,27.8,49.2,27.6L49.2,27.6z"/>
		<path id="路径_3_" class="st1" d="M44.7,24.9c-1.3-1.5-2-3.4-2-5.4h-1.6C40.6,22.2,42.2,24,44.7,24.9L44.7,24.9z"/>
		<path id="路径_4_" class="st1" d="M24.6,40.1c-0.5,2.2,0.7,4.9,3.1,5.9c-1.1-1.5-1.2-3.5-0.4-5.2c0.9-1.7,2.6-2.7,4.4-2.7
			c0.5,0,1,0.1,1.5,0.2v-6c-0.5-0.1-1-0.1-1.5-0.1h-0.3l-1,3.5C30,35.6,25.1,37.9,24.6,40.1z"/>
		<path id="路径_5_" class="st1" d="M49.2,27.5l-0.5,3.8c-3,0-5.6-0.6-8-2.3l-0.1,12.5c0,6-4.5,10.3-10.5,10.3
			c-2.2,0-4.4-0.2-6.3-1.4c3.1,3.3,7.8,4.4,12,2.7s6.9-5.7,6.9-10.2V31c2.4,1.7,5.3,2.6,8.3,2.6v-6C50.4,27.7,49.8,27.7,49.2,27.5z"
			/>
		<path id="路径_6_" class="st2" d="M41,41.6V29.5c2.4,1.7,5.3,2.7,8.3,2.6v-4.6c-1.7-0.4-3.3-1.3-4.5-2.6
			c-1.9-1.2-3.2-3.2-3.6-5.4h-4.3v23.8c-0.1,2.1-1.5,4-3.5,4.6s-4.2-0.1-5.5-1.8c-2-1.1-3.1-3.4-2.5-5.6s2.5-3.8,4.8-3.8
			c0.5,0,1,0.1,1.5,0.2v-4.6c-4.3,0.1-8.2,2.7-9.9,6.7s-0.8,8.6,2.1,11.7c1.8,1.2,4,1.9,6.3,1.9C36.1,52.5,41,47.6,41,41.6z"/>
	</g>
</g>
</svg>
