<svg xmlns="http://www.w3.org/2000/svg" viewBox="0 0 72 72" style="enable-background:new 0 0 72 72" xml:space="preserve"><path d="M6.89 33.237c18.12-7.894 30.202-13.099 36.248-15.613 17.26-7.18 20.847-8.427 23.185-8.468.514-.009 1.664.118 2.408.723.63.51.802 1.2.885 1.683.083.484.186 1.586.104 2.447-.935 9.828-4.983 33.678-7.042 44.686-.871 4.658-2.587 6.22-4.248 6.372-3.609.332-6.35-2.385-9.846-4.677-5.47-3.586-8.56-5.818-13.87-9.317-6.137-4.044-2.16-6.267 1.338-9.9.915-.95 16.819-15.415 17.126-16.727.039-.164.075-.776-.289-1.1-.363-.322-.9-.212-1.287-.124-.548.125-9.287 5.9-26.217 17.329-2.48 1.703-4.727 2.533-6.74 2.49-2.22-.048-6.488-1.255-9.662-2.287-3.892-1.265-6.986-1.934-6.717-4.083.14-1.12 1.682-2.264 4.624-3.434z" style="fill:#231f20"/></svg>